<?xml version="1.0" encoding="utf-8"?>
<!-- Generator: Adobe Illustrator 19.0.0, SVG Export Plug-In . SVG Version: 6.00 Build 0)  -->
<svg version="1.1" id="Layer_1" xmlns="http://www.w3.org/2000/svg" xmlns:xlink="http://www.w3.org/1999/xlink" x="0px" y="0px"
	 width="540px" height="106px" viewBox="131 245.3 540 106" style="enable-background:new 131 245.3 540 106;" xml:space="preserve"
	>
<style type="text/css">
	.st0{fill:#B3DB18;}
	.st1{fill:#B3DB00;}
	.st2{fill:#F89C14;}
	.st3{fill:url(#XMLID_5_);}
	.st4{enable-background:new    ;}
	.st5{fill:#7F7F7F;}
</style>
<g id="layer1" transform="translate(0 -308.27)">
	<g id="g4144" transform="matrix(.74783 0 0 -.74783 -41.8 953.2)">
		<g id="g4154" transform="translate(470.96 355.68)">
			<path id="path4156" class="st0" d="M-65.8,81.9c-6,0.9-12-0.3-18.1-0.6c-11.4-1.2-22.7-2.8-33.9-5.4c-6.4,0.4-11.4-3.6-17.9-3.3
				c-6.6-1.2-12.3-5.8-19.3-5.8c-4.6-1.1-9.2-3.6-13.7-3.9c-5.7-1.9-11.2-4.4-16.6-7c-3.5-4.1-12.3-3.5-12.6-9.8
				c2.7-5,8.4-7,12.7-2.7c5.7,3,11.2,6.8,17.7,8c4.5,2.3,9.9,2.5,14.5,4.8c5.6,1.6,11.1,3.8,16.9,4.6c5.2,1.3,10,4,15.4,4.3
				c5.4,2.5,10.3,0.1,15.9,2c6.9,2,13.9,3.9,21.2,3.2c5.9-0.7,11.6,3.2,17.4,1.4c7.8-0.9,15.8,1.5,23,2c3.6,3.2,6.2,12.5-1.6,9.6
				C-51.7,82.1-58.9,83.5-65.8,81.9L-65.8,81.9z"/>
		</g>
		<path id="path4160" class="st1" d="M489.4,515.7c2.8,7.4-8.5,2.7-11.5,0.8c-7.2-4.6-12.3-11.7-17.5-18.4
			c-4.4-4.1-4.7-10.4-7.9-15.4c-2.1-6.6-0.1-13.7-1-20.5c-0.2-5.8-0.1-11.5,0.6-17.3c0.5-5.3,0.5-10.7,2.5-15.7
			c1-4.8,2.1-9.7,4.6-13.7c2.3-3.1,10.8-6.7,11.4-0.6c-0.9,5.4-5,9.8-5.2,15.5c-1.4,6.4-4.3,12.4-3.5,19.1
			c-0.6,6.6,0.5,13.1,0.4,19.7c0.8,6.3,3.1,12.3,4.6,18.5c3.1,8.2,8.9,15.2,16,20.2C484.4,509.6,492.7,515.2,489.4,515.7
			L489.4,515.7z M459,529.9c-3.9,4.9-10,1.5-11.9-2.5c-5.2-2.2-4.4-9.9-2.8-14.2c-1.1-2.8,6.9-6.5,10.3-4.5
			c3.6,4.5,0.7,8.9,2.5,13.9C457.9,524.9,458.9,527.3,459,529.9z M443.3,497.7c-3,4.2-4.2,9-8.3,12.3c-7,6.8-13.1,15.6-22.8,18.8
			c-4.2,2.1-11.4,2.1-8.4-3.5c-1.3-2.9,7.6-4.2,9.8-7.5c4.5-4.2,9.7-8,12.7-13.6c4.2-6.7,7.2-14,10.4-21.2c2.5-5.7,0.5-13,1.6-18.2
			c-0.8-5.5-1.3-11-3.2-16.6c0.5-5.2-3.9-9-4.2-14.1c-1-3.6-3.9-4.4-3.4-7.2c-2.8-4.2-3.2-8.2-6.2-12.4c-2.5-3.7-10-8.3-3.6-12.4
			c7.4-2.9,10.7,4.7,13.8,9.7c3,3.6,5.4,8,6.9,12.3c2,5.7,5.5,10.9,5.9,17.1c1.1,4.9,2.5,9.7,3.3,14.8c0,5.2,1.2,10.4,1.4,15.6
			c-1,5-0.5,10-0.9,14.9C448,490.9,443.6,494.1,443.3,497.7L443.3,497.7z"/>
		<g id="g4162" transform="translate(469.9 425.93)">
			<path id="path4164" class="st2" d="M-65.6,67.9c-3.7,4.9-9.5,7.4-13.5,11.7c-4.6,4.5-10.1,7.9-14.4,12.8
				c-4.2,4.1-8.6,7.9-12.8,12.1c-4.2,4.7-9.4,1.7-12.1-2.8c-4.2-2.6-6.4-7.6-10.9-9.7c-3.7-4-8-7.1-12.2-10.4
				c-3.8-4.5-8.4-7.8-12.9-11.6c-4.1-3.8-8.2-7.5-12.2-11.5c-6.3-3.4,4-6.5,1.7-11.6c2-4.7,0.1-8.3,1.3-13.5
				c-1.6-5.4-0.6-10.9-0.9-16.5c-0.5-5.1,0.2-11.1-0.3-15.5c0.7-3.6,1.5-9.5,6.6-6.2c8.3,0.1,1.4,8.7,3.6,13.5
				c0.5,5.4,0.7,11.5-0.1,16.7c-0.3,6.2,1.5,11.9,0.5,18.4c-0.3,5.8-1.3,13.1,4.9,16.5c4,3.4,8.5,6.3,12.4,10
				c3.4,4.3,8.2,6.7,11.5,11c3.9,2.4,6.2,6.1,10,8.5c3,2.3,5.8,5.9,8.5,0.8c4-4.2,8.6-7.5,12.7-11.8c4.3-2.9,7.3-7,11.7-10
				c3.5-4.4,10.1-6.9,11.7-12.9c0.9-6.6-1.4-13.2-0.1-19.8c-0.4-5.9,1.7-11,0.1-16.8c0.3-3-1.6-8.3,3.9-7.6c3.6,0.1,9.7-0.7,6.4,4.1
				c-0.9,6.2,0.9,12.4-0.6,18.5c0.4,5.1-0.6,10.2,0.8,15c-1.4,5,7.6,8.6,2.3,11.8C-60.2,63.8-63.1,65.7-65.6,67.9L-65.6,67.9z"/>
		</g>
		<g id="g4166" transform="translate(349.56 456.94)">
			<path id="path4168" class="st0" d="M-41.6,61.7c0.2,5.6-5.6,9.2-10.4,10.5c-5,0.9-10.4,2.1-15.1-0.6c-4.5-1.4-8.8-3.8-12.5-6.8
				c-1.9-3.7-4.9-7.1-5-11.1c1.8-3,6.2-6.7,0.3-8.4c-3.9-3.5-9.2-4.4-13.2-7.6c-4.4-3.2-7.6-7-10.1-11.2c-0.6-4.5-4.5-8-3.8-13.2
				c-0.7-4.6,1.9-9.4,4.8-12.9c5.7-6.2,13.6-11.3,22.3-11.2c4.4,1.6,10-2.4,13.7,1.3c5.3-1.4,1.5-6.8,3.1-10.8
				c0.1-4-1.1-8.4-0.1-12.1c-0.5-4.5-0.7-8.7,1.4-13c0.6-2.5,5.3,3.2,8.1,3c2.7,3.7-1.1,8.5,0.7,12.6c1.1,2.5-1.2,3.1,0.2,5.3
				c-1.3,3,1,6.5-0.6,9.1c0.5,3.8-0.3,7.9,0.1,11.5c-3,3.9-8.3,5.5-13,3.9c-6.1,1.3-12.6-2.7-18.6,0.2c-5.3-0.3-12.2,2.7-11.3,9
				c-1.9,4.7,1.2,8,2.4,12.1c2.4,5.8,8.2,9.1,13.5,11.7c5.8,2.8,11.2,7.2,17.9,7.6c3.8,0.3,12.8,1,8.3,6.8c-2.3,5.7-8.5,4-13.1,3.1
				c-5.5,0.4,0.1,8.3,3.3,9c4.7,2.7,10,3.4,15.4,3c3.7-0.3,8.3-4.7,10.9-0.8H-41.6L-41.6,61.7z"/>
		</g>
		<g id="g4170">
			<g id="g4172">
				<g id="g4178">
					<g id="g4180">
						<g id="path4190">
							
								<radialGradient id="XMLID_5_" cx="712.2101" cy="587.0137" r="1" gradientTransform="matrix(105.9225 0 0 105.9225 -75104.8984 -61621.5273)" gradientUnits="userSpaceOnUse">
								<stop  offset="0" style="stop-color:#CFE40F"/>
								<stop  offset="5.000000e-002" style="stop-color:#CFE40F"/>
								<stop  offset="1" style="stop-color:#92C019"/>
							</radialGradient>
							<path id="XMLID_1_" class="st3" d="M250.7,460l1.2,0.6C251.3,460.4,250.9,460.2,250.7,460"/>
						</g>
					</g>
				</g>
			</g>
		</g>
	</g>
	<g id="XMLID_140_" class="st4">
		<path id="XMLID_60_" class="st5" d="M370.6,615v-55.2c4.7-0.5,11.4-0.7,20-0.7c7.3,0,12.2,1.2,14.9,3.7c2.7,2.5,4,7.2,4,14
			c0,6.9-1.3,11.6-3.8,14c-2.6,2.5-7.2,3.7-13.8,3.7c-3.9,0-7.7-0.2-11.3-0.6v21L370.6,615L370.6,615z M380.6,586.5h9.8
			c3.5-0.1,5.9-0.7,7.2-2c1.3-1.3,1.9-3.8,1.9-7.6c0-3.7-0.6-6.3-1.9-7.6c-1.3-1.3-3.7-2-7.2-2h-9.8L380.6,586.5L380.6,586.5z"/>
		<path id="XMLID_63_" class="st5" d="M444.6,574.7l-1,9.1h-2.8c-2.8,0-7.1,1.2-13,3.5V615H418v-39.2h7.6l0.9,5.8
			c5.6-4.6,11-6.9,16.2-6.9H444.6z"/>
		<path id="XMLID_65_" class="st5" d="M468.1,574.7c7,0,12,1.6,14.9,4.7c2.9,3.1,4.4,8.5,4.4,16s-1.5,12.8-4.4,16
			c-2.9,3.1-7.9,4.7-14.9,4.7c-7.1,0-12.1-1.6-15-4.7c-2.9-3.1-4.4-8.4-4.4-16c0-7.6,1.5-12.9,4.4-16
			C456,576.3,461,574.7,468.1,574.7z M468.1,582.5c-3.6,0-6.1,0.9-7.4,2.7c-1.3,1.8-1.9,5.2-1.9,10.3c0,5,0.6,8.4,1.9,10.2
			c1.3,1.8,3.7,2.7,7.4,2.7c3.5,0,5.9-0.9,7.2-2.7c1.3-1.8,2-5.2,2-10.2c0-5.1-0.7-8.5-2-10.3S471.6,582.5,468.1,582.5z"/>
		<path id="XMLID_68_" class="st5" d="M534.6,580.5l-5.1,0.6c0.7,1.7,1,3.8,1,6.2c0,4.5-1.3,7.8-3.9,9.7c-2.6,1.9-7.2,2.9-13.8,2.9
			c-2.9,0-5.3-0.2-7.2-0.6c-0.6,1-0.8,2-0.4,3.2s1.3,1.9,2.7,2l14.3,2c3.8,0.5,6.6,1.7,8.3,3.5c1.7,1.8,2.5,4.5,2.5,7.9
			c0,4.8-1.4,8.1-4.3,9.9s-8,2.7-15.5,2.7c-7.6,0-12.8-0.9-15.6-2.6c-2.8-1.7-4.2-4.9-4.2-9.4c0-2,0.5-3.7,1.4-5
			c1-1.3,2.5-2.5,4.7-3.7c-1.8-1.7-2.5-3.8-2.2-6.4c0.3-2.6,1.4-4.5,3.2-5.7c-3.7-1.8-5.5-5.3-5.5-10.6c0-4.6,1.3-7.9,3.9-9.8
			c2.6-1.9,7.2-2.9,13.8-2.9c3.9,0,7.2,0.4,9.8,1.1h12.4L534.6,580.5L534.6,580.5z M517.1,613.5l-11.2-1.4c-2,1.9-3,3.7-3,5.5
			c0,2.3,0.7,3.7,2,4.4c1.3,0.6,4.1,0.9,8.4,0.9s7.1-0.3,8.5-1c1.3-0.6,2-2.1,2-4.2c0-1.6-0.4-2.6-1.2-3.1
			C521.8,614.2,519.9,613.8,517.1,613.5L517.1,613.5z M506,591.9c1.3,0.9,3.6,1.3,6.9,1.3c3.3,0,5.6-0.4,6.8-1.3
			c1.3-0.9,1.9-2.4,1.9-4.6s-0.6-3.7-1.9-4.5c-1.3-0.8-3.5-1.2-6.8-1.2c-3.3,0-5.6,0.4-6.9,1.2s-1.9,2.3-1.9,4.5
			S504.7,591.1,506,591.9z"/>
		<path id="XMLID_72_" class="st5" d="M566.2,599.5h-16c0.4,3.4,1.3,5.7,2.9,6.8c1.5,1.1,4.1,1.7,7.6,1.7c4,0,8.7-0.3,14.1-1
			l0.9,6.2c-3.7,1.8-9.1,2.6-16.2,2.6s-12.1-1.6-15.1-4.7c-3-3.1-4.5-8.5-4.5-15.9c0-7.6,1.5-13,4.4-16c2.9-3.1,7.8-4.6,14.6-4.6
			c6.2,0,10.8,1.1,13.6,3.4c2.8,2.3,4.2,5.7,4.2,10.2C576.6,595.8,573.1,599.5,566.2,599.5z M550,592.7h13.4c2.3,0,3.5-1.5,3.5-4.6
			c0-2.1-0.6-3.6-1.7-4.5c-1.1-0.9-3.1-1.3-6.1-1.3c-3.4,0-5.8,0.7-7.1,2.1C550.8,585.9,550.1,588.7,550,592.7L550,592.7z"/>
		<path id="XMLID_75_" class="st5" d="M593.6,575.8l0.6,5.8c6.1-4.6,11.7-6.9,17-6.9c3.5,0,6.1,0.9,8,2.8c1.9,1.9,2.8,4.6,2.8,8.1
			V615h-9.8v-26.5c0-2.2-0.3-3.7-0.9-4.4c-0.6-0.8-1.7-1.2-3.3-1.2c-1.8,0-3.7,0.4-5.6,1.1s-4.3,2-7.3,3.7V615h-9.8v-39.2H593.6
			L593.6,575.8z"/>
		<path id="XMLID_77_" class="st5" d="M650.3,574.7c7,0,12,1.6,14.9,4.7c2.9,3.1,4.4,8.5,4.4,16s-1.5,12.8-4.4,16
			c-2.9,3.1-7.9,4.7-14.9,4.7c-7.1,0-12.1-1.6-15-4.7c-2.9-3.1-4.4-8.4-4.4-16c0-7.6,1.5-12.9,4.4-16
			C638.2,576.3,643.2,574.7,650.3,574.7z M650.3,582.5c-3.6,0-6.1,0.9-7.4,2.7c-1.3,1.8-1.9,5.2-1.9,10.3c0,5,0.6,8.4,1.9,10.2
			c1.3,1.8,3.7,2.7,7.4,2.7c3.5,0,5.9-0.9,7.2-2.7s2-5.2,2-10.2c0-5.1-0.7-8.5-2-10.3S653.8,582.5,650.3,582.5z"/>
	</g>
	<g id="XMLID_81_" class="st4">
		<path id="XMLID_2_" class="st5" d="M390,638.6l-2.9,14.5c-0.1,0.4-0.4,0.6-0.9,0.6h-2.4c-0.5,0-0.8-0.2-0.9-0.7l-2.2-11.2
			c-0.1-0.8-0.3-1.3-0.3-1.7H380l-0.3,1.7l-2.2,11.2c0,0.2-0.1,0.3-0.3,0.5c-0.2,0.1-0.4,0.2-0.6,0.2h-2.5c-0.5,0-0.7-0.2-0.8-0.6
			l-2.9-14.5h2.3l2.2,11.6c0,0.3,0.1,0.9,0.3,1.9h0.5l0.3-1.9l2.2-10.8c0.1-0.5,0.4-0.7,0.8-0.7h2.4c0.2,0,0.4,0.1,0.5,0.2
			c0.2,0.1,0.3,0.3,0.3,0.5l2.2,10.9c0.1,0.6,0.2,1.2,0.3,1.9h0.5c0-0.2,0.1-0.5,0.1-0.9c0.1-0.4,0.1-0.7,0.2-0.9l2.2-11.6h2.3
			L390,638.6z"/>
		<path id="XMLID_4_" class="st5" d="M392.6,644.1c0.8-0.9,2.1-1.3,4-1.3s3.2,0.4,4,1.3c0.8,0.9,1.2,2.3,1.2,4.4
			c0,2.1-0.4,3.5-1.2,4.4c-0.8,0.9-2.1,1.3-4,1.3s-3.2-0.4-4-1.3c-0.8-0.9-1.2-2.3-1.2-4.4C391.4,646.4,391.8,645,392.6,644.1z
			 M398.8,645.4c-0.4-0.5-1.2-0.8-2.3-0.8c-1.1,0-1.9,0.3-2.3,0.8s-0.6,1.6-0.6,3.1s0.2,2.5,0.6,3s1.2,0.8,2.3,0.8
			c1.1,0,1.9-0.3,2.3-0.8s0.6-1.6,0.6-3C399.4,647,399.2,646,398.8,645.4z"/>
		<path id="XMLID_7_" class="st5" d="M406.6,638.4v4.2c0,0.7-0.1,1.4-0.2,2.1c1.7-1.2,3.3-1.9,4.7-1.9c0.9,0,1.7,0.3,2.2,0.8
			s0.7,1.2,0.7,2.2v8.1h-2.1v-7.4c0-0.7-0.1-1.1-0.3-1.4c-0.2-0.3-0.6-0.4-1.1-0.4c-0.6,0-1.1,0.1-1.7,0.4c-0.6,0.2-1.3,0.7-2.3,1.2
			v7.6h-2.1v-15.4h2.2L406.6,638.4z"/>
		<path id="XMLID_9_" class="st5" d="M419.1,643.1l0.1,1.7c1.7-1.3,3.3-1.9,4.8-1.9c1,0,1.7,0.3,2.2,0.8s0.7,1.2,0.7,2.2v8.1h-2.1
			v-7.4c0-0.7-0.1-1.1-0.3-1.4c-0.2-0.3-0.6-0.4-1.1-0.4c-0.6,0-1.1,0.1-1.7,0.4c-0.6,0.2-1.3,0.7-2.3,1.2v7.6h-2.1v-10.7h1.8V643.1
			z"/>
		<path id="XMLID_11_" class="st5" d="M439.4,643.1v10.7h-1.7l-0.2-1.5c-1.6,1.2-3.1,1.8-4.6,1.8c-2,0-2.9-1-2.9-3V643h2.1v7.4
			c0,0.7,0.1,1.1,0.3,1.4s0.6,0.4,1.2,0.4c0.8,0,2-0.5,3.6-1.4V643L439.4,643.1L439.4,643.1z"/>
		<path id="XMLID_13_" class="st5" d="M444.5,643.1l0.1,1.7c1.7-1.3,3.3-1.9,4.8-1.9c1,0,1.7,0.3,2.2,0.8s0.7,1.2,0.7,2.2v8.1h-2.1
			v-7.4c0-0.7-0.1-1.1-0.3-1.4c-0.2-0.3-0.6-0.4-1.1-0.4c-0.6,0-1.1,0.1-1.7,0.4c-0.6,0.2-1.3,0.7-2.3,1.2v7.6h-2.1v-10.7h1.8V643.1
			z"/>
		<path id="XMLID_15_" class="st5" d="M465.6,644.2l-1.5,0.2c0.2,0.5,0.4,1.1,0.4,1.9c0,1.2-0.3,2.1-1,2.6s-1.9,0.8-3.6,0.8
			c-0.8,0-1.5-0.1-2.1-0.2c-0.2,0.3-0.3,0.6-0.2,1c0.1,0.4,0.4,0.6,0.9,0.7l4,0.6c1,0.1,1.7,0.5,2.2,0.9c0.4,0.5,0.6,1.2,0.6,2.1
			c0,1.3-0.4,2.2-1.1,2.6c-0.7,0.5-2.1,0.7-4.1,0.7s-3.4-0.2-4.1-0.7c-0.8-0.5-1.1-1.3-1.1-2.6c0-0.6,0.1-1.1,0.4-1.4
			c0.3-0.4,0.7-0.7,1.3-1.1c-0.5-0.4-0.7-1-0.7-1.7c0.1-0.7,0.3-1.3,0.8-1.6c-0.9-0.5-1.4-1.4-1.4-2.8c0-1.3,0.3-2.2,1-2.7
			s1.9-0.8,3.7-0.8c1.1,0,1.9,0.1,2.6,0.3h3.3L465.6,644.2L465.6,644.2z M461.2,653.4l-3.5-0.5c-0.7,0.6-1,1.2-1,1.8
			c0,0.7,0.2,1.2,0.6,1.4c0.4,0.2,1.3,0.3,2.6,0.3s2.1-0.1,2.5-0.3s0.6-0.7,0.6-1.4c0-0.5-0.1-0.8-0.3-1
			C462.5,653.6,462,653.5,461.2,653.4L461.2,653.4z M459.8,648.1c1,0,1.7-0.1,2.1-0.4s0.6-0.7,0.6-1.4c0-0.7-0.2-1.2-0.6-1.4
			c-0.4-0.3-1.1-0.4-2.1-0.4s-1.7,0.1-2.1,0.4s-0.6,0.7-0.6,1.4c0,0.7,0.2,1.1,0.6,1.4C458.1,647.9,458.8,648.1,459.8,648.1z"/>
		<path id="XMLID_19_" class="st5" d="M472.7,649.6l-3-0.7c-0.9-0.2-1.5-0.6-1.9-1c-0.4-0.5-0.6-1.1-0.6-2c0-1.2,0.3-2,1-2.4
			c0.6-0.4,1.7-0.6,3.3-0.6c1.7,0,3.2,0.2,4.6,0.4l-0.2,1.5c-2.2-0.1-3.6-0.1-4.1-0.1c-1,0-1.7,0.1-2,0.2c-0.3,0.1-0.5,0.5-0.5,1
			c0,0.3,0,0.5,0.1,0.6c0,0.2,0.2,0.3,0.3,0.4c0.2,0.1,0.3,0.2,0.4,0.2s0.3,0.1,0.7,0.2l3,0.7c0.9,0.2,1.6,0.6,1.9,1
			c0.4,0.4,0.6,1.1,0.6,2c0,1.3-0.3,2.1-1,2.5c-0.7,0.4-1.9,0.6-3.6,0.6c-1.5,0-2.9-0.1-4.3-0.3l0.2-1.6c0.8,0.1,2,0.1,3.7,0.1
			c1.2,0,2-0.1,2.4-0.3c0.4-0.2,0.6-0.5,0.6-1.1c0-0.2,0-0.4-0.1-0.6s-0.2-0.3-0.4-0.4c-0.2-0.1-0.3-0.2-0.5-0.2
			C473.3,649.7,473.1,649.7,472.7,649.6L472.7,649.6z"/>
		<path id="XMLID_21_" class="st5" d="M489.2,644.2l-1.5,0.2c0.2,0.5,0.4,1.1,0.4,1.9c0,1.2-0.3,2.1-1,2.6s-1.9,0.8-3.6,0.8
			c-0.8,0-1.5-0.1-2.1-0.2c-0.2,0.3-0.3,0.6-0.2,1c0.1,0.4,0.4,0.6,0.9,0.7l4,0.6c1,0.1,1.7,0.5,2.2,0.9c0.4,0.5,0.6,1.2,0.6,2.1
			c0,1.3-0.4,2.2-1.1,2.6c-0.7,0.5-2.1,0.7-4.1,0.7s-3.4-0.2-4.1-0.7c-0.8-0.5-1.1-1.3-1.1-2.6c0-0.6,0.1-1.1,0.4-1.4
			c0.3-0.4,0.7-0.7,1.3-1.1c-0.5-0.4-0.7-1-0.7-1.7c0.1-0.7,0.3-1.3,0.8-1.6c-0.9-0.5-1.4-1.4-1.4-2.8c0-1.3,0.3-2.2,1-2.7
			s1.9-0.8,3.7-0.8c1.1,0,1.9,0.1,2.6,0.3h3.3L489.2,644.2L489.2,644.2z M484.8,653.4l-3.5-0.5c-0.7,0.6-1,1.2-1,1.8
			c0,0.7,0.2,1.2,0.6,1.4c0.4,0.2,1.3,0.3,2.6,0.3s2.1-0.1,2.5-0.3s0.6-0.7,0.6-1.4c0-0.5-0.1-0.8-0.3-1
			C486.1,653.6,485.6,653.5,484.8,653.4L484.8,653.4z M483.4,648.1c1,0,1.7-0.1,2.1-0.4s0.6-0.7,0.6-1.4c0-0.7-0.2-1.2-0.6-1.4
			c-0.4-0.3-1.1-0.4-2.1-0.4s-1.7,0.1-2.1,0.4s-0.6,0.7-0.6,1.4c0,0.7,0.2,1.1,0.6,1.4C481.7,647.9,482.4,648.1,483.4,648.1z"/>
		<path id="XMLID_25_" class="st5" d="M497.9,649.5h-4.8c0.1,1.1,0.4,1.9,0.9,2.2c0.5,0.3,1.3,0.6,2.3,0.6s2.2-0.1,3.8-0.3l0.2,1.4
			c-1,0.4-2.4,0.6-4.2,0.6c-1.9,0-3.2-0.4-4-1.3c-0.8-0.9-1.2-2.3-1.2-4.4c0-2.1,0.4-3.5,1.2-4.4c0.8-0.8,2-1.3,3.8-1.3
			c1.6,0,2.8,0.3,3.6,0.9c0.8,0.6,1.1,1.5,1.1,2.7C500.5,648.5,499.6,649.5,497.9,649.5L497.9,649.5z M493,647.8h4.3
			c0.7,0,1.1-0.5,1.1-1.4c0-0.7-0.2-1.1-0.6-1.4s-1-0.4-1.9-0.4c-1.1,0-1.8,0.2-2.2,0.7C493.3,645.7,493.1,646.6,493,647.8
			L493,647.8z"/>
		<path id="XMLID_28_" class="st5" d="M505,643.1l0.1,1.7c1.7-1.3,3.3-1.9,4.8-1.9c1,0,1.7,0.3,2.2,0.8c0.5,0.5,0.7,1.2,0.7,2.2v8.1
			h-2.1v-7.4c0-0.7-0.1-1.1-0.3-1.4c-0.2-0.3-0.6-0.4-1.1-0.4c-0.6,0-1.1,0.1-1.7,0.4c-0.6,0.2-1.3,0.7-2.3,1.2v7.6h-2.1v-10.7h1.8
			V643.1z"/>
		<path id="XMLID_30_" class="st5" d="M516.7,644.1c0.8-0.9,2.1-1.3,4-1.3s3.2,0.4,4,1.3c0.8,0.9,1.2,2.3,1.2,4.4
			c0,2.1-0.4,3.5-1.2,4.4c-0.8,0.9-2.1,1.3-4,1.3s-3.2-0.4-4-1.3c-0.8-0.9-1.2-2.3-1.2-4.4C515.5,646.4,515.9,645,516.7,644.1z
			 M522.9,645.4c-0.4-0.5-1.2-0.8-2.3-0.8c-1.1,0-1.9,0.3-2.3,0.8s-0.6,1.6-0.6,3.1s0.2,2.5,0.6,3s1.2,0.8,2.3,0.8
			c1.1,0,1.9-0.3,2.3-0.8s0.6-1.6,0.6-3C523.5,647,523.3,646,522.9,645.4z"/>
		<path id="XMLID_33_" class="st5" d="M533.4,649.6l-3-0.7c-0.9-0.2-1.5-0.6-1.9-1c-0.4-0.5-0.6-1.1-0.6-2c0-1.2,0.3-2,1-2.4
			c0.6-0.4,1.7-0.6,3.3-0.6c1.7,0,3.2,0.2,4.6,0.4l-0.2,1.5c-2.2-0.1-3.6-0.1-4.1-0.1c-1,0-1.7,0.1-2,0.2c-0.3,0.1-0.5,0.5-0.5,1
			c0,0.3,0,0.5,0.1,0.6c0,0.2,0.2,0.3,0.3,0.4c0.2,0.1,0.3,0.2,0.4,0.2c0.1,0,0.3,0.1,0.7,0.2l3,0.7c0.9,0.2,1.6,0.6,1.9,1
			c0.4,0.4,0.6,1.1,0.6,2c0,1.3-0.3,2.1-1,2.5c-0.7,0.4-1.9,0.6-3.6,0.6c-1.5,0-2.9-0.1-4.3-0.3l0.2-1.6c0.8,0.1,2,0.1,3.7,0.1
			c1.2,0,2-0.1,2.4-0.3c0.4-0.2,0.6-0.5,0.6-1.1c0-0.2,0-0.4-0.1-0.6c-0.1-0.2-0.2-0.3-0.4-0.4c-0.2-0.1-0.3-0.2-0.5-0.2
			C534,649.7,533.7,649.7,533.4,649.6L533.4,649.6z"/>
		<path id="XMLID_35_" class="st5" d="M544.6,649.6l-3-0.7c-0.9-0.2-1.5-0.6-1.9-1c-0.4-0.5-0.6-1.1-0.6-2c0-1.2,0.3-2,1-2.4
			c0.6-0.4,1.7-0.6,3.3-0.6c1.7,0,3.2,0.2,4.6,0.4l-0.2,1.5c-2.2-0.1-3.6-0.1-4.1-0.1c-1,0-1.7,0.1-2,0.2c-0.3,0.1-0.5,0.5-0.5,1
			c0,0.3,0,0.5,0.1,0.6c0,0.2,0.2,0.3,0.3,0.4c0.2,0.1,0.3,0.2,0.4,0.2c0.1,0,0.3,0.1,0.7,0.2l3,0.7c0.9,0.2,1.6,0.6,1.9,1
			c0.4,0.4,0.6,1.1,0.6,2c0,1.3-0.3,2.1-1,2.5c-0.7,0.4-1.9,0.6-3.6,0.6c-1.5,0-2.9-0.1-4.3-0.3l0.2-1.6c0.8,0.1,2,0.1,3.7,0.1
			c1.2,0,2-0.1,2.4-0.3c0.4-0.2,0.6-0.5,0.6-1.1c0-0.2,0-0.4-0.1-0.6c-0.1-0.2-0.2-0.3-0.4-0.4c-0.2-0.1-0.3-0.2-0.5-0.2
			C545.2,649.7,544.9,649.7,544.6,649.6L544.6,649.6z"/>
		<path id="XMLID_37_" class="st5" d="M557.5,649.5h-4.8c0.1,1.1,0.4,1.9,0.9,2.2c0.5,0.3,1.3,0.6,2.3,0.6s2.2-0.1,3.8-0.3l0.2,1.4
			c-1,0.4-2.4,0.6-4.2,0.6c-1.9,0-3.2-0.4-4-1.3c-0.8-0.9-1.2-2.3-1.2-4.4c0-2.1,0.4-3.5,1.2-4.4c0.8-0.8,2-1.3,3.8-1.3
			c1.6,0,2.8,0.3,3.6,0.9c0.8,0.6,1.1,1.5,1.1,2.7C560.1,648.5,559.2,649.5,557.5,649.5L557.5,649.5z M552.7,647.8h4.3
			c0.7,0,1.1-0.5,1.1-1.4c0-0.7-0.2-1.1-0.6-1.4s-1-0.4-1.9-0.4c-1.1,0-1.8,0.2-2.2,0.7C552.9,645.7,552.7,646.6,552.7,647.8
			L552.7,647.8z"/>
		<path id="XMLID_40_" class="st5" d="M564.6,643.1l0.1,1.7c1.7-1.3,3.3-1.9,4.8-1.9c1,0,1.7,0.3,2.2,0.8s0.7,1.2,0.7,2.2v8.1h-2.1
			v-7.4c0-0.7-0.1-1.1-0.3-1.4c-0.2-0.3-0.6-0.4-1.1-0.4c-0.6,0-1.1,0.1-1.7,0.4c-0.6,0.2-1.3,0.7-2.3,1.2v7.6h-2.1v-10.7h1.8V643.1
			z"/>
		<path id="XMLID_42_" class="st5" d="M580.5,649.6l-3-0.7c-0.9-0.2-1.5-0.6-1.9-1c-0.4-0.5-0.6-1.1-0.6-2c0-1.2,0.3-2,1-2.4
			c0.6-0.4,1.7-0.6,3.3-0.6c1.7,0,3.2,0.2,4.6,0.4l-0.2,1.5c-2.2-0.1-3.6-0.1-4.1-0.1c-1,0-1.7,0.1-2,0.2c-0.3,0.1-0.5,0.5-0.5,1
			c0,0.3,0,0.5,0.1,0.6c0,0.2,0.2,0.3,0.3,0.4c0.2,0.1,0.3,0.2,0.4,0.2s0.3,0.1,0.7,0.2l3,0.7c0.9,0.2,1.6,0.6,1.9,1
			c0.4,0.4,0.6,1.1,0.6,2c0,1.3-0.3,2.1-1,2.5c-0.7,0.4-1.9,0.6-3.6,0.6c-1.5,0-2.9-0.1-4.3-0.3l0.2-1.6c0.8,0.1,2,0.1,3.7,0.1
			c1.2,0,2-0.1,2.4-0.3c0.4-0.2,0.6-0.5,0.6-1.1c0-0.2,0-0.4-0.1-0.6s-0.2-0.3-0.4-0.4c-0.2-0.1-0.3-0.2-0.5-0.2
			C581.1,649.7,580.8,649.7,580.5,649.6L580.5,649.6z"/>
		<path id="XMLID_44_" class="st5" d="M595,652.1l0.2,1.4c-1.1,0.4-2.3,0.6-3.7,0.6c-1.9,0-3.2-0.4-4-1.3c-0.8-0.8-1.2-2.3-1.2-4.4
			c0-2.1,0.4-3.5,1.2-4.4c0.8-0.9,2.1-1.3,4-1.3c1.4,0,2.6,0.2,3.6,0.6l-0.3,1.4c-1.1-0.1-2.1-0.1-2.9-0.1c-1.2,0-2.1,0.3-2.6,0.8
			s-0.7,1.6-0.7,3c0,1.4,0.2,2.5,0.7,3s1.3,0.8,2.6,0.8C593,652.3,594.1,652.2,595,652.1L595,652.1z"/>
		<path id="XMLID_46_" class="st5" d="M599.8,638.4v4.2c0,0.7-0.1,1.4-0.2,2.1c1.7-1.2,3.3-1.9,4.7-1.9c0.9,0,1.7,0.3,2.2,0.8
			s0.7,1.2,0.7,2.2v8.1h-2.1v-7.4c0-0.7-0.1-1.1-0.3-1.4c-0.2-0.3-0.6-0.4-1.1-0.4c-0.6,0-1.1,0.1-1.7,0.4c-0.6,0.2-1.3,0.7-2.3,1.2
			v7.6h-2.1v-15.4h2.2L599.8,638.4z"/>
		<path id="XMLID_48_" class="st5" d="M610.5,644.9l-0.2-1.6c1.9-0.3,3.7-0.5,5.2-0.5c1.3,0,2.3,0.3,2.9,0.8
			c0.6,0.5,0.9,1.4,0.9,2.8v7.5h-1.7l-0.2-1.7c-1.1,1.2-2.7,1.9-4.3,1.9c-1,0-1.8-0.3-2.4-0.8c-0.6-0.5-0.9-1.3-0.9-2.2V650
			c0-0.9,0.3-1.5,0.8-2s1.3-0.7,2.2-0.7h4.3v-1c0-0.7-0.2-1.1-0.5-1.4s-0.9-0.4-1.7-0.4C614.3,644.6,612.8,644.7,610.5,644.9
			L610.5,644.9z M612,650.1v0.6c0,0.5,0.1,0.9,0.4,1.1c0.2,0.2,0.6,0.4,1.2,0.4c1.3,0,2.5-0.5,3.6-1.5v-1.9h-3.9
			c-0.5,0-0.8,0.1-1,0.4C612.1,649.5,612,649.7,612,650.1L612,650.1z"/>
		<path id="XMLID_51_" class="st5" d="M629.6,639.8h-2.2c-0.7,0-1.1,0.1-1.4,0.4s-0.4,0.7-0.4,1.3v1.6h3.3v1.7h-3.3v9.1h-2.1v-9.1
			h-1.9v-1.5l1.9-0.1v-1.9c0-1,0.2-1.8,0.7-2.4c0.5-0.5,1.3-0.8,2.4-0.8c1.4,0,2.4,0.1,3.1,0.2L629.6,639.8L629.6,639.8z"/>
		<path id="XMLID_53_" class="st5" d="M637,652.1l0.2,1.7c-0.8,0.2-1.7,0.3-2.5,0.3c-0.9,0-1.6-0.3-2.1-0.8s-0.7-1.3-0.7-2.2v-6.3
			h-2v-1.5l2-0.1V640h2.1v3.1h3.3v1.7H634v6c0,0.5,0.1,0.9,0.3,1.1s0.6,0.3,1.1,0.3h1.6V652.1z"/>
		<path id="XMLID_55_" class="st5" d="M651,649.5h-4.8c0.1,1.1,0.4,1.9,0.9,2.2c0.5,0.3,1.3,0.6,2.3,0.6s2.2-0.1,3.8-0.3l0.2,1.4
			c-1,0.4-2.4,0.6-4.2,0.6c-1.9,0-3.2-0.4-4-1.3c-0.8-0.9-1.2-2.3-1.2-4.4c0-2.1,0.4-3.5,1.2-4.4c0.8-0.8,2-1.3,3.8-1.3
			c1.6,0,2.8,0.3,3.6,0.9c0.8,0.6,1.1,1.5,1.1,2.7C653.6,648.5,652.8,649.5,651,649.5L651,649.5z M646.2,647.8h4.3
			c0.7,0,1.1-0.5,1.1-1.4c0-0.7-0.2-1.1-0.6-1.4s-1-0.4-1.9-0.4c-1.1,0-1.8,0.2-2.2,0.7C646.4,645.7,646.2,646.6,646.2,647.8
			L646.2,647.8z"/>
		<path id="XMLID_58_" class="st5" d="M667.1,645.1v8.8h-1.6l-0.2-1.5c-1.2,1.2-2.8,1.8-4.5,1.8c-1.7,0-2.9-0.6-3.6-1.9
			s-1.1-3.3-1.1-6c0-2,0.2-3.6,0.6-4.7c0.4-1.1,1.1-1.9,2-2.4s2.2-0.7,3.8-0.7s3,0.2,4.2,0.5l-0.2,1.7c-1.2-0.1-2.5-0.2-3.9-0.2
			c-0.7,0-1.2,0-1.7,0.1c-0.4,0.1-0.8,0.2-1.2,0.5c-0.4,0.2-0.6,0.6-0.8,1c-0.2,0.5-0.3,1-0.4,1.7c-0.1,0.7-0.2,1.6-0.2,2.6
			c0,2.2,0.2,3.7,0.7,4.6c0.5,0.9,1.2,1.3,2.4,1.3c1.1,0,2.3-0.4,3.6-1.3v-5.8h2.1L667.1,645.1z"/>
	</g>
</g>
</svg>
