<?xml version="1.0" encoding="utf-8"?>
<!-- Generator: Adobe Illustrator 19.0.0, SVG Export Plug-In . SVG Version: 6.00 Build 0)  -->
<svg version="1.1" id="Layer_1" xmlns="http://www.w3.org/2000/svg" xmlns:xlink="http://www.w3.org/1999/xlink" x="0px" y="0px"
	 width="1240px" height="20px" viewBox="0 0 1240 20" style="enable-background:new 0 0 1240 20;" xml:space="preserve">
<style type="text/css">
	.st0{fill:#C1C1C1;}
</style>
<rect id="XMLID_1_" x="19" y="0" width="2" height="20"/>
<rect id="XMLID_21_" x="259" y="0" width="2" height="20"/>
<rect id="XMLID_5_" x="499" y="0" width="2" height="20"/>
<rect id="XMLID_22_" x="739" y="0" width="2" height="20"/>
<rect id="XMLID_23_" x="979" y="0" width="2" height="20"/>
<rect id="XMLID_24_" x="1219" y="0" width="2" height="20"/>
<rect id="XMLID_25_" x="1239" y="0" class="st0" width="1" height="20"/>
<rect id="XMLID_26_" x="1199" y="0" class="st0" width="2" height="20"/>
<rect id="XMLID_27_" x="999" y="0" class="st0" width="2" height="20"/>
<rect id="XMLID_28_" x="959" y="0" class="st0" width="2" height="20"/>
<rect id="XMLID_29_" x="759" y="0" class="st0" width="2" height="20"/>
<rect id="XMLID_30_" x="719" y="0" class="st0" width="2" height="20"/>
<rect id="XMLID_31_" x="519" y="0" class="st0" width="2" height="20"/>
<rect id="XMLID_32_" x="479" y="0" class="st0" width="2" height="20"/>
<rect id="XMLID_33_" x="279" y="0" class="st0" width="2" height="20"/>
<rect id="XMLID_34_" x="239" y="0" class="st0" width="2" height="20"/>
<rect id="XMLID_35_" x="39" y="0" class="st0" width="2" height="20"/>
<rect id="XMLID_36_" y="0" class="st0" width="1" height="20"/>
</svg>
